# OBJ file export
# Generated by Verto Studio 3D for iPad
# 
mtllib export.mtl
v -1.31528 18.1605 5.62861
v -7.68686 19.293 5.62861
v -6.31768 18.1605 5.62861
v 3.64031 18.1605 5.62861
v 5.0563 18.1605 5.62861
v 5.05629 19.293 5.62861
v 5.05629 18.1605 -0.742964
v 5.05629 18.1605 4.28273
v 5.05629 18.1605 -5.81485
v 5.05629 18.1605 -7.11453
v 5.05629 19.293 -7.11453
v -1.31529 18.1605 -7.11453
v 3.6403 18.1605 -7.11453
v -6.31769 18.1605 -7.11453
v -7.68686 18.1605 -7.11453
v -7.68686 19.293 -7.11453
v -7.68686 18.1605 -0.74296
v -7.68686 18.1605 -5.81485
v -7.68686 18.1605 4.28273
v -7.68686 18.1605 5.62861
v -6.31769 18.1605 4.28273
v -6.31769 18.1605 -5.81485
v -6.31769 18.1605 -0.74296
v 3.6403 18.1605 -5.81485
v -1.31529 18.1605 -5.81485
v -1.31529 18.1605 -0.74296
v 3.6403 18.1605 -0.742962
v 3.6403 18.1605 4.28273
v -1.31529 18.1605 4.28273
v 5.05629 8.04439 -5.81485
v 5.05629 8.04439 -7.11453
v 3.6403 8.04439 -7.11453
v 3.6403 8.04439 -5.81485
v 5.05629 8.04439 -5.81485
v 5.05629 8.04439 -7.11453
v 3.6403 8.04439 -7.11453
v 3.6403 8.04439 -5.81485
v -6.31769 8.04439 -7.11453
v -7.68686 8.04439 -7.11453
v -7.68686 8.04439 -5.81485
v -6.31769 8.04439 -5.81485
v 3.64031 8.04439 5.62861
v 5.0563 8.04439 5.62861
v 5.05629 8.04439 4.28273
v 3.6403 8.04439 4.28273
v -7.68686 8.04439 5.62861
v -6.31768 8.04439 5.62861
v -7.68686 8.04439 4.28273
v -6.31769 8.04439 4.28273
v -1.31529 19.293 5.62861
v 5.05629 19.293 -0.74296
v -7.68686 19.293 -0.74296
v -1.31529 19.293 -7.11453
v -1.31529 19.293 -0.74296
v -6.28248 19.293 5.62861
v 1.8705 19.293 5.62861
v 5.05629 19.293 2.44283
v 5.05629 19.293 -3.92875
v -7.68686 19.293 2.44283
v -7.68686 19.293 -3.92875
v 1.8705 19.293 -7.11453
v -6.28248 19.293 -7.11453
v 1.8705 19.293 2.44283
v 1.8705 19.293 -3.92875
v -6.28248 19.293 2.44283
v -6.28248 19.293 -3.92875
v -1.31529 19.293 2.44283
v 1.8705 19.293 -0.74296
v -6.28248 19.293 -0.74296
v -1.31529 19.293 -3.92875
v -6.28248 31.9381 5.62861
v -7.68686 31.9381 5.62861
v -7.68686 31.9381 2.44283
v -7.68686 31.9381 -0.74296
v -7.68686 31.9381 -3.92875
v -7.68686 31.9381 -7.11453
v -6.28248 31.9381 -7.11453
v -6.28248 31.9381 2.44283
v -6.28248 31.9381 -3.92875
v -6.28248 31.9381 -0.74296
vt 0 0.5 
vt 0 0 
vt 0 0.75 
vt 0 0.25 
vt 0 0 
vt 0 -1 
vt -0.5 -0 
vt -0.25 -0 
vt -0.75 -0 
vt -1 0 
vt -1 -1 
vt -1 0.5 
vt -1 0.25 
vt -1 0.75 
vt -1 1 
vt -1 0 
vt -0.5 1 
vt -0.75 1 
vt -0.25 1 
vt 0 1 
vt -0.25 0.75 
vt -0.75 0.75 
vt -0.5 0.75 
vt -0.75 0.25 
vt -0.75 0.5 
vt -0.5 0.5 
vt -0.5 0.25 
vt -0.25 0.25 
vt -0.25 0.5 
vt -0.75 -0 
vt -1 0 
vt -1 0.25 
vt -0.75 0.25 
vt -0.75 -0 
vt -1 0 
vt -1 0.25 
vt -0.75 0.25 
vt -1 0.75 
vt -1 1 
vt -0.75 1 
vt -0.75 0.75 
vt 0 0.25 
vt 0 0 
vt -0.25 -0 
vt -0.25 0.25 
vt 0 1 
vt 0 0.75 
vt -0.25 1 
vt -0.25 0.75 
vt 0 -0.5 
vt -0.5 -1 
vt -0.5 -0 
vt -1 -0.5 
vt -0.5 -0.5 
vt 0 -0.25 
vt 0 -0.75 
vt -0.25 -1 
vt -0.75 -1 
vt -0.25 -0 
vt -0.75 -0 
vt -1 -0.75 
vt -1 -0.25 
vt -0.25 -0.75 
vt -0.75 -0.75 
vt -0.25 -0.25 
vt -0.75 -0.25 
vt -0.25 -0.5 
vt -0.5 -0.75 
vt -0.5 -0.25 
vt -0.75 -0.5 
vt 0 -0.25 
vt 0 0 
vt -0.25 -0 
vt -0.5 -0 
vt -0.75 -0 
vt -1 0 
vt -1 -0.25 
vt -0.25 -0.25 
vt -0.75 -0.25 
vt -0.5 -0.25 
vn 4.7811e-08 -0.158066 0.474193
vn -0.281003 0.0702505 0.281003
vn 0.105377 -0.210753 0.316129
vn -0.105376 -0.210754 0.316129
vn 0.252903 -0.126452 0.252903
vn 0.270968 0.0903224 0.270967
vn 0.474193 -0.158063 -3.77555e-08
vn 0.316129 -0.210752 -0.105377
vn 0.316129 -0.210752 0.105376
vn 0.252903 -0.126452 -0.252903
vn 0.270968 0.0903229 -0.270968
vn 0 -0.158064 -0.474193
vn -0.105376 -0.210753 -0.316129
vn 0.105376 -0.210753 -0.316129
vn -0.252903 -0.126452 -0.252903
vn -0.281003 0.0702508 -0.281003
vn -0.474193 -0.158064 0
vn -0.316129 -0.210753 0.105376
vn -0.316129 -0.210753 -0.105376
vn -0.252903 -0.126452 0.252903
vn 0.105376 -0.421505 -0.105376
vn 0.105376 -0.421505 0.105376
vn 0 -0.632258 0
vn -0.105376 -0.421505 0.105376
vn 0 -0.632258 0
vn 0 -0.632258 0
vn 0 -0.632258 0
vn -0.105376 -0.421505 -0.105376
vn 0 -0.632258 0
vn 0.210753 -0.210753 0.210752
vn 0.210753 -0.210753 -0.210753
vn -0.210753 -0.210753 -0.210752
vn -0.210753 -0.210753 0.210753
vn 0 -0.632258 0
vn 0 -0.632258 0
vn 0 -0.632258 0
vn 0 -0.632258 0
vn 0.210753 -0.210753 -0.210753
vn -0.210753 -0.210753 -0.210753
vn -0.210753 -0.210753 0.210753
vn 0.210753 -0.210753 0.210753
vn -0.210752 -0.210753 0.210753
vn 0.210753 -0.210753 0.210752
vn 0.210752 -0.210753 -0.210753
vn -0.210753 -0.210753 -0.210752
vn -0.210752 -0.210753 0.210753
vn 0.210753 -0.210753 0.210752
vn -0.210753 -0.210753 -0.210753
vn 0.210753 -0.210753 -0.210753
vn 0 0.316128 0.316129
vn 0.316129 0.31613 0
vn -0.421505 0.210753 0
vn 0 0.316129 -0.316129
vn 0 0.632258 0
vn 0.105376 0.210752 0.316129
vn 0 0.316128 0.316129
vn 0.316129 0.31613 0
vn 0.316129 0.31613 0
vn -0.421505 0.210753 0
vn -0.421505 0.210753 0
vn 0 0.316129 -0.316129
vn 0.105376 0.210753 -0.316129
vn 0 0.632258 0
vn 0 0.632258 0
vn 0.210753 0.421505 0
vn 0.210753 0.421505 0
vn 0 0.632258 0
vn 0 0.632258 0
vn 0.210753 0.421505 0
vn 0 0.632258 0
vn 0.210753 0.210753 0.210753
vn -0.210753 0.210753 0.210753
vn -0.316129 0.316129 0
vn -0.316129 0.316129 0
vn -0.316129 0.316129 0
vn -0.210753 0.210753 -0.210753
vn 0.210753 0.210753 -0.210753
vn 0.316129 0.316129 0
vn 0.316129 0.316129 0
vn 0.316129 0.316129 0
g Cube
usemtl Material_1
f 1/1/1 2/2/2 3/3/3
f 4/4/4 5/5/5 6/6/6
f 55/55/55 2/2/2 1/1/1
f 7/7/7 6/6/6 8/8/8
f 9/9/9 10/10/10 11/11/11
f 57/57/57 6/6/6 7/7/7
f 12/12/12 11/11/11 13/13/13
f 14/14/14 15/15/15 16/16/16
f 61/61/61 11/11/11 12/12/12
f 17/17/17 16/16/16 18/18/18
f 19/19/19 20/20/20 2/2/2
f 60/60/60 16/16/16 17/17/17
f 2/2/2 20/20/20 3/3/3
f 6/6/6 1/1/1 4/4/4
f 6/6/6 5/5/5 8/8/8
f 11/11/11 7/7/7 9/9/9
f 11/11/11 10/10/10 13/13/13
f 16/16/16 12/12/12 14/14/14
f 16/16/16 15/15/15 18/18/18
f 2/2/2 17/17/17 19/19/19
f 50/50/50 1/1/1 56/56/56
f 51/51/51 7/7/7 58/58/58
f 53/53/53 12/12/12 62/62/62
f 52/52/52 17/17/17 59/59/59
f 1/1/1 50/50/50 55/55/55
f 7/7/7 51/51/51 57/57/57
f 12/12/12 53/53/53 61/61/61
f 17/17/17 52/52/52 60/60/60
f 1/1/1 6/6/6 56/56/56
f 7/7/7 11/11/11 58/58/58
f 12/12/12 16/16/16 62/62/62
f 17/17/17 2/2/2 59/59/59
f 60/60/60 66/66/66 62/62/62 16/16/16
f 20/20/20 19/19/19 21/21/21 3/3/3
f 17/17/17 18/18/18 22/22/22 23/23/23
f 12/12/12 13/13/13 24/24/24 25/25/25
f 26/26/26 27/27/27 28/28/28 29/29/29
f 19/19/19 17/17/17 23/23/23 21/21/21
f 23/23/23 26/26/26 29/29/29 21/21/21
f 21/21/21 29/29/29 1/1/1 3/3/3
f 18/18/18 15/15/15 14/14/14 22/22/22
f 14/14/14 12/12/12 25/25/25 22/22/22
f 22/22/22 25/25/25 26/26/26 23/23/23
f 13/13/13 10/10/10 9/9/9 24/24/24
f 9/9/9 7/7/7 27/27/27 24/24/24
f 24/24/24 27/27/27 26/26/26 25/25/25
f 27/27/27 7/7/7 8/8/8 28/28/28
f 8/8/8 5/5/5 4/4/4 28/28/28
f 28/28/28 4/4/4 1/1/1 29/29/29
f 32/32/32 31/31/31 30/30/30 33/33/33
f 30/30/30 31/31/31 10/10/10 9/9/9
f 31/31/31 32/32/32 13/13/13 10/10/10
f 33/33/33 30/30/30 9/9/9 24/24/24
f 32/32/32 33/33/33 24/24/24 13/13/13
f 36/36/36 35/35/35 34/34/34 37/37/37
f 40/40/40 39/39/39 38/38/38 41/41/41
f 38/38/38 39/39/39 15/15/15 14/14/14
f 39/39/39 40/40/40 18/18/18 15/15/15
f 41/41/41 38/38/38 14/14/14 22/22/22
f 40/40/40 41/41/41 22/22/22 18/18/18
f 44/44/44 43/43/43 42/42/42 45/45/45
f 42/42/42 43/43/43 5/5/5 4/4/4
f 43/43/43 44/44/44 8/8/8 5/5/5
f 45/45/45 42/42/42 4/4/4 28/28/28
f 44/44/44 45/45/45 28/28/28 8/8/8
f 46/46/46 48/48/48 49/49/49 47/47/47
f 46/46/46 47/47/47 3/3/3 20/20/20
f 48/48/48 46/46/46 20/20/20 19/19/19
f 47/47/47 49/49/49 21/21/21 3/3/3
f 49/49/49 48/48/48 19/19/19 21/21/21
f 70/70/70 64/64/64 61/61/61 53/53/53
f 68/68/68 63/63/63 57/57/57 51/51/51
f 69/69/69 65/65/65 67/67/67 54/54/54
f 66/66/66 70/70/70 53/53/53 62/62/62
f 66/66/66 69/69/69 54/54/54 70/70/70
f 60/60/60 52/52/52 69/69/69 66/66/66
f 64/64/64 58/58/58 11/11/11 61/61/61
f 64/64/64 68/68/68 51/51/51 58/58/58
f 70/70/70 54/54/54 68/68/68 64/64/64
f 63/63/63 56/56/56 6/6/6 57/57/57
f 63/63/63 67/67/67 50/50/50 56/56/56
f 68/68/68 54/54/54 67/67/67 63/63/63
f 65/65/65 55/55/55 50/50/50 67/67/67
f 65/65/65 59/59/59 2/2/2 55/55/55
f 69/69/69 52/52/52 59/59/59 65/65/65
f 75/75/75 79/79/79 77/77/77 76/76/76
f 75/75/75 74/74/74 80/80/80 79/79/79
f 78/78/78 73/73/73 72/72/72 71/71/71
f 80/80/80 74/74/74 73/73/73 78/78/78
f 71/71/71 72/72/72 2/2/2 55/55/55
f 72/72/72 73/73/73 59/59/59 2/2/2
f 73/73/73 74/74/74 52/52/52 59/59/59
f 75/75/75 76/76/76 16/16/16 60/60/60
f 74/74/74 75/75/75 60/60/60 52/52/52
f 76/76/76 77/77/77 62/62/62 16/16/16
f 78/78/78 71/71/71 55/55/55 65/65/65
f 77/77/77 79/79/79 66/66/66 62/62/62
f 80/80/80 78/78/78 65/65/65 69/69/69
f 79/79/79 80/80/80 69/69/69 66/66/66
